<svg width="374" height="33" viewBox="0 0 374 33" fill="none" xmlns="http://www.w3.org/2000/svg">
<path d="M15.5954 26V25.28C16.3634 25.232 16.9394 25.136 17.3234 24.992C17.7074 24.848 17.9594 24.56 18.0794 24.128C18.2234 23.696 18.2954 23.048 18.2954 22.184V4.328C18.2954 3.44 18.2234 2.792 18.0794 2.384C17.9594 1.952 17.6954 1.664 17.2874 1.52C16.9034 1.352 16.3394 1.256 15.5954 1.232V0.512C16.2434 0.536 17.0834 0.559999 18.1154 0.583999C19.1714 0.607999 20.2154 0.619998 21.2474 0.619998C22.3514 0.619998 23.3834 0.607999 24.3434 0.583999C25.3274 0.559999 26.1194 0.536 26.7194 0.512V1.232C25.9514 1.256 25.3634 1.352 24.9554 1.52C24.5714 1.664 24.3194 1.952 24.1994 2.384C24.0794 2.792 24.0194 3.44 24.0194 4.328V22.184C24.0194 23.048 24.0794 23.696 24.1994 24.128C24.3434 24.56 24.6074 24.848 24.9914 24.992C25.3754 25.136 25.9514 25.232 26.7194 25.28V26C26.1194 25.952 25.3274 25.928 24.3434 25.928C23.3834 25.904 22.3514 25.892 21.2474 25.892C20.2154 25.892 19.1714 25.904 18.1154 25.928C17.0834 25.928 16.2434 25.952 15.5954 26ZM0.331422 26V25.28C1.09942 25.232 1.67542 25.136 2.05942 24.992C2.44342 24.848 2.69542 24.56 2.81542 24.128C2.95942 23.696 3.03142 23.048 3.03142 22.184V4.328C3.03142 3.44 2.95942 2.792 2.81542 2.384C2.69542 1.952 2.43142 1.664 2.02342 1.52C1.63942 1.352 1.07542 1.256 0.331422 1.232V0.512C0.955422 0.536 1.75942 0.559999 2.74342 0.583999C3.75142 0.607999 4.84342 0.619998 6.01942 0.619998C7.02742 0.619998 8.02342 0.607999 9.00742 0.583999C9.99142 0.559999 10.8074 0.536 11.4554 0.512V1.232C10.6874 1.256 10.0994 1.352 9.69142 1.52C9.30742 1.664 9.05542 1.952 8.93542 2.384C8.81542 2.792 8.75542 3.44 8.75542 4.328V22.184C8.75542 23.048 8.81542 23.696 8.93542 24.128C9.07942 24.56 9.34342 24.848 9.72742 24.992C10.1114 25.136 10.6874 25.232 11.4554 25.28V26C10.8074 25.952 9.99142 25.928 9.00742 25.928C8.02342 25.904 7.02742 25.892 6.01942 25.892C4.84342 25.892 3.75142 25.904 2.74342 25.928C1.75942 25.928 0.955422 25.952 0.331422 26ZM6.41542 13.544V12.824H20.6354V13.544H6.41542ZM41.9111 0.00799775C44.4551 0.00799775 46.6751 0.523998 48.5711 1.556C50.4911 2.588 51.9791 4.076 53.0351 6.02C54.0911 7.94 54.6191 10.28 54.6191 13.04C54.6191 15.728 54.0791 18.08 52.9991 20.096C51.9191 22.112 50.4071 23.684 48.4631 24.812C46.5431 25.94 44.3471 26.504 41.8751 26.504C39.3311 26.504 37.0991 25.988 35.1791 24.956C33.2831 23.924 31.8071 22.436 30.7511 20.492C29.6951 18.548 29.1671 16.208 29.1671 13.472C29.1671 10.784 29.7071 8.432 30.7871 6.416C31.8911 4.4 33.3911 2.828 35.2871 1.7C37.2071 0.571998 39.4151 0.00799775 41.9111 0.00799775ZM41.7671 0.655998C40.4231 0.655998 39.2471 1.196 38.2391 2.276C37.2551 3.356 36.4871 4.844 35.9351 6.74C35.4071 8.636 35.1431 10.832 35.1431 13.328C35.1431 15.872 35.4431 18.092 36.0431 19.988C36.6671 21.86 37.4951 23.312 38.5271 24.344C39.5831 25.352 40.7471 25.856 42.0191 25.856C43.3631 25.856 44.5271 25.316 45.5111 24.236C46.5191 23.156 47.2871 21.668 47.8151 19.772C48.3671 17.852 48.6431 15.656 48.6431 13.184C48.6431 10.616 48.3311 8.396 47.7071 6.524C47.1071 4.652 46.2791 3.212 45.2231 2.204C44.1911 1.172 43.0391 0.655998 41.7671 0.655998ZM57.1088 0.512C57.7088 0.536 58.5128 0.559999 59.5208 0.583999C60.5528 0.607999 61.5728 0.619998 62.5808 0.619998C63.7328 0.619998 64.8488 0.607999 65.9288 0.583999C67.0088 0.559999 67.7768 0.547999 68.2328 0.547999C71.2088 0.547999 73.4288 1.076 74.8928 2.132C76.3808 3.188 77.1248 4.544 77.1248 6.2C77.1248 7.04 76.8728 7.892 76.3688 8.756C75.8648 9.62 75.0848 10.388 74.0288 11.06C72.9728 11.732 71.6048 12.224 69.9248 12.536V12.608C72.1808 12.776 73.9688 13.184 75.2888 13.832C76.6088 14.48 77.5568 15.26 78.1328 16.172C78.7088 17.084 78.9968 18.032 78.9968 19.016C78.9968 21.272 78.1088 23 76.3328 24.2C74.5808 25.4 72.1568 26 69.0608 26C68.4848 26 67.6448 25.988 66.5408 25.964C65.4608 25.916 64.1648 25.892 62.6528 25.892C61.5968 25.892 60.5528 25.904 59.5208 25.928C58.5128 25.928 57.7088 25.952 57.1088 26V25.28C57.8768 25.232 58.4528 25.136 58.8368 24.992C59.2208 24.848 59.4728 24.56 59.5928 24.128C59.7368 23.696 59.8088 23.048 59.8088 22.184V4.328C59.8088 3.44 59.7368 2.792 59.5928 2.384C59.4728 1.952 59.2088 1.664 58.8008 1.52C58.4168 1.352 57.8528 1.256 57.1088 1.232V0.512ZM67.7648 1.232C66.8288 1.232 66.2168 1.436 65.9288 1.844C65.6648 2.252 65.5328 3.08 65.5328 4.328V22.184C65.5328 23.432 65.6888 24.248 66.0008 24.632C66.3128 24.992 66.9848 25.172 68.0168 25.172C69.7448 25.172 71.0048 24.632 71.7968 23.552C72.6128 22.448 73.0208 20.888 73.0208 18.872C73.0208 17.024 72.5528 15.596 71.6168 14.588C70.7048 13.58 69.1808 13.076 67.0448 13.076H63.9848C63.9848 13.076 63.9848 12.98 63.9848 12.788C63.9848 12.572 63.9848 12.464 63.9848 12.464H67.0808C68.2088 12.464 69.0728 12.2 69.6728 11.672C70.2728 11.12 70.6928 10.4 70.9328 9.512C71.1728 8.6 71.2928 7.628 71.2928 6.596C71.2928 4.82 71.0168 3.488 70.4648 2.6C69.9128 1.688 69.0128 1.232 67.7648 1.232ZM92.8281 0.439999L101.576 22.976C101.912 23.84 102.284 24.44 102.692 24.776C103.124 25.088 103.508 25.256 103.844 25.28V26C103.124 25.952 102.272 25.928 101.288 25.928C100.328 25.904 99.3561 25.892 98.3721 25.892C97.2681 25.892 96.2241 25.904 95.2401 25.928C94.2561 25.928 93.4761 25.952 92.9001 26V25.28C94.1241 25.232 94.8921 25.028 95.2041 24.668C95.5401 24.284 95.4681 23.48 94.9881 22.256L88.8681 5.516L89.5161 4.58L84.0441 18.836C83.3721 20.612 83.0361 21.956 83.0361 22.868C83.0601 23.78 83.3601 24.404 83.9361 24.74C84.5121 25.052 85.2801 25.232 86.2401 25.28V26C85.4481 25.952 84.6921 25.928 83.9721 25.928C83.2521 25.904 82.5201 25.892 81.7761 25.892C81.2481 25.892 80.7441 25.904 80.2641 25.928C79.8081 25.928 79.4001 25.952 79.0401 26V25.28C79.5441 25.184 80.0601 24.86 80.5881 24.308C81.1161 23.756 81.6321 22.82 82.1361 21.5L90.3441 0.439999C90.7281 0.463998 91.1361 0.475998 91.5681 0.475998C92.0241 0.475998 92.4441 0.463998 92.8281 0.439999ZM95.3481 15.632V16.352H84.6201L84.9801 15.632H95.3481ZM127.496 0.512V1.232C126.728 1.256 126.152 1.352 125.768 1.52C125.384 1.664 125.12 1.952 124.976 2.384C124.856 2.792 124.796 3.44 124.796 4.328V22.184C124.796 23.048 124.856 23.696 124.976 24.128C125.12 24.56 125.384 24.848 125.768 24.992C126.152 25.136 126.728 25.232 127.496 25.28V26C126.896 25.952 126.08 25.928 125.048 25.928C124.04 25.904 122.96 25.892 121.808 25.892C120.824 25.892 119.828 25.904 118.82 25.928C117.812 25.928 116.996 25.952 116.372 26V25.28C117.116 25.232 117.68 25.136 118.064 24.992C118.472 24.848 118.736 24.56 118.856 24.128C119 23.696 119.072 23.048 119.072 22.184V4.328C119.072 3.08 118.928 2.252 118.64 1.844C118.376 1.436 117.776 1.232 116.84 1.232C115.208 1.232 114.056 1.748 113.384 2.78C112.712 3.812 112.376 5.252 112.376 7.1C112.376 8.228 112.508 9.26 112.772 10.196C113.036 11.108 113.54 11.84 114.284 12.392C115.028 12.92 116.108 13.184 117.524 13.184H120.62C120.62 13.184 120.62 13.304 120.62 13.544C120.62 13.784 120.62 13.904 120.62 13.904H117.164C114.332 13.904 112.136 13.58 110.576 12.932C109.016 12.284 107.924 11.432 107.3 10.376C106.7 9.32 106.4 8.204 106.4 7.028C106.4 4.964 107.216 3.368 108.848 2.24C110.504 1.112 113.012 0.547999 116.372 0.547999C116.828 0.547999 117.584 0.559999 118.64 0.583999C119.72 0.607999 120.848 0.619998 122.024 0.619998C123.032 0.619998 124.04 0.607999 125.048 0.583999C126.08 0.559999 126.896 0.536 127.496 0.512ZM120.404 13.292L120.332 13.904H116.444C115.7 13.904 115.112 14.132 114.68 14.588C114.272 15.02 113.948 15.62 113.708 16.388C113.468 17.132 113.264 18.008 113.096 19.016L112.448 22.616C112.184 24.104 111.632 25.124 110.792 25.676C109.952 26.228 108.896 26.504 107.624 26.504C106.592 26.504 105.704 26.336 104.96 26C104.216 25.688 103.532 25.16 102.908 24.416L103.412 23.984C103.652 24.248 103.868 24.452 104.06 24.596C104.276 24.716 104.54 24.788 104.852 24.812C105.308 24.812 105.656 24.62 105.896 24.236C106.136 23.852 106.352 23.18 106.544 22.22L107.3 18.512C107.612 16.976 108.32 15.872 109.424 15.2C110.528 14.528 112.112 14.06 114.176 13.796C114.632 13.724 115.088 13.664 115.544 13.616C116 13.568 116.6 13.52 117.344 13.472C118.112 13.4 119.132 13.34 120.404 13.292ZM149.444 0.512V1.232C148.676 1.256 148.088 1.352 147.68 1.52C147.296 1.664 147.044 1.952 146.924 2.384C146.804 2.792 146.744 3.44 146.744 4.328V22.184C146.744 23.048 146.804 23.696 146.924 24.128C147.068 24.56 147.332 24.848 147.716 24.992C148.1 25.136 148.676 25.232 149.444 25.28V26C148.796 25.952 147.98 25.928 146.996 25.928C146.012 25.904 145.016 25.892 144.008 25.892C142.856 25.892 141.764 25.904 140.732 25.928C139.724 25.928 138.92 25.952 138.32 26V25.28C139.088 25.232 139.664 25.136 140.048 24.992C140.432 24.848 140.684 24.56 140.804 24.128C140.948 23.696 141.02 23.048 141.02 22.184V4.328C141.02 3.44 140.948 2.792 140.804 2.384C140.684 1.952 140.42 1.664 140.012 1.52C139.628 1.352 139.064 1.256 138.32 1.232V0.512C138.92 0.536 139.724 0.559999 140.732 0.583999C141.764 0.607999 142.856 0.619998 144.008 0.619998C145.016 0.619998 146.012 0.607999 146.996 0.583999C147.98 0.559999 148.796 0.536 149.444 0.512ZM147.788 12.392C149.708 12.392 151.376 12.536 152.792 12.824C154.232 13.088 155.384 13.58 156.248 14.3C157.136 14.996 157.736 16.028 158.048 17.396L159.092 22.22C159.284 23.204 159.5 23.888 159.74 24.272C159.98 24.632 160.34 24.812 160.82 24.812C161.108 24.788 161.348 24.716 161.54 24.596C161.756 24.452 161.984 24.248 162.224 23.984L162.728 24.416C162.08 25.136 161.384 25.664 160.64 26C159.896 26.336 158.996 26.504 157.94 26.504C156.644 26.504 155.576 26.24 154.736 25.712C153.896 25.16 153.344 24.128 153.08 22.616L152.108 17.108C151.94 16.148 151.688 15.368 151.352 14.768C151.04 14.168 150.56 13.724 149.912 13.436C149.264 13.148 148.364 13.004 147.212 13.004H145.808V12.392H147.788ZM146.6 13.004V12.392C147.632 12.368 148.568 12.092 149.408 11.564C150.248 11.012 151.148 10.172 152.108 9.044L154.232 6.488C155.168 5.408 155.708 4.484 155.852 3.716C155.996 2.924 155.84 2.312 155.384 1.88C154.928 1.448 154.22 1.22 153.26 1.196V0.512C154.148 0.536 154.988 0.559999 155.78 0.583999C156.572 0.607999 157.496 0.619998 158.552 0.619998C159.968 0.619998 161.108 0.583999 161.972 0.512V1.196C161.18 1.364 160.352 1.7 159.488 2.204C158.624 2.708 157.7 3.524 156.716 4.652L149.588 13.004H146.6ZM176.735 0.00799775C179.279 0.00799775 181.499 0.523998 183.395 1.556C185.315 2.588 186.803 4.076 187.859 6.02C188.915 7.94 189.443 10.28 189.443 13.04C189.443 15.728 188.903 18.08 187.823 20.096C186.743 22.112 185.231 23.684 183.287 24.812C181.367 25.94 179.171 26.504 176.699 26.504C174.155 26.504 171.923 25.988 170.003 24.956C168.107 23.924 166.631 22.436 165.575 20.492C164.519 18.548 163.991 16.208 163.991 13.472C163.991 10.784 164.531 8.432 165.611 6.416C166.715 4.4 168.215 2.828 170.111 1.7C172.031 0.571998 174.239 0.00799775 176.735 0.00799775ZM176.591 0.655998C175.247 0.655998 174.071 1.196 173.063 2.276C172.079 3.356 171.311 4.844 170.759 6.74C170.231 8.636 169.967 10.832 169.967 13.328C169.967 15.872 170.267 18.092 170.867 19.988C171.491 21.86 172.319 23.312 173.351 24.344C174.407 25.352 175.571 25.856 176.843 25.856C178.187 25.856 179.351 25.316 180.335 24.236C181.343 23.156 182.111 21.668 182.639 19.772C183.191 17.852 183.467 15.656 183.467 13.184C183.467 10.616 183.155 8.396 182.531 6.524C181.931 4.652 181.103 3.212 180.047 2.204C179.015 1.172 177.863 0.655998 176.591 0.655998ZM215.408 0.512V1.232C214.592 1.256 213.968 1.352 213.536 1.52C213.128 1.664 212.852 1.952 212.708 2.384C212.564 2.792 212.492 3.44 212.492 4.328V22.184C212.492 23.048 212.564 23.696 212.708 24.128C212.852 24.56 213.128 24.848 213.536 24.992C213.968 25.136 214.592 25.232 215.408 25.28V26C214.76 25.952 213.908 25.928 212.852 25.928C211.82 25.904 210.716 25.892 209.54 25.892C208.412 25.892 207.308 25.904 206.228 25.928C205.148 25.928 204.26 25.952 203.564 26V25.28C204.452 25.232 205.124 25.136 205.58 24.992C206.06 24.848 206.372 24.56 206.516 24.128C206.684 23.696 206.768 23.048 206.768 22.184V4.328C206.768 3.008 206.576 2.168 206.192 1.808C205.832 1.424 205.196 1.232 204.284 1.232H204.032C203.456 1.232 202.988 1.316 202.628 1.484C202.292 1.628 202.04 1.928 201.872 2.384C201.728 2.816 201.62 3.464 201.548 4.328C201.404 6.008 201.26 7.856 201.116 9.872C200.972 11.864 200.78 13.844 200.54 15.812C200.3 17.756 199.928 19.544 199.424 21.176C198.944 22.784 198.272 24.08 197.408 25.064C196.544 26.024 195.416 26.504 194.024 26.504C192.944 26.504 192.008 26.204 191.216 25.604C190.448 24.98 190.064 24.164 190.064 23.156C190.064 22.22 190.376 21.476 191 20.924C191.648 20.372 192.428 20.096 193.34 20.096C194.132 20.096 194.768 20.3 195.248 20.708C195.752 21.092 196.004 21.632 196.004 22.328C196.004 23.168 195.728 23.876 195.176 24.452C194.648 25.004 193.964 25.4 193.124 25.64C193.244 25.712 193.376 25.76 193.52 25.784C193.688 25.808 193.856 25.82 194.024 25.82C195.128 25.82 196.052 25.4 196.796 24.56C197.54 23.72 198.14 22.58 198.596 21.14C199.076 19.676 199.448 18.02 199.712 16.172C199.976 14.324 200.18 12.392 200.324 10.376C200.468 8.336 200.6 6.32 200.72 4.328C200.816 3.056 200.672 2.24 200.288 1.88C199.928 1.496 199.1 1.28 197.804 1.232V0.512C198.308 0.536 198.908 0.559999 199.604 0.583999C200.3 0.607999 200.936 0.619998 201.512 0.619998C202.064 0.619998 202.592 0.607999 203.096 0.583999C203.624 0.536 204.152 0.512 204.68 0.512C205.592 0.512 206.42 0.536 207.164 0.583999C207.908 0.607999 208.796 0.619998 209.828 0.619998C210.428 0.619998 211.076 0.619998 211.772 0.619998C212.492 0.595999 213.164 0.583999 213.788 0.583999C214.436 0.559999 214.976 0.536 215.408 0.512ZM241.319 0.512V1.232C240.503 1.256 239.879 1.352 239.447 1.52C239.039 1.664 238.763 1.952 238.619 2.384C238.475 2.792 238.403 3.44 238.403 4.328V22.184C238.403 23.048 238.475 23.696 238.619 24.128C238.763 24.56 239.039 24.848 239.447 24.992C239.879 25.136 240.503 25.232 241.319 25.28V26C240.671 25.952 239.819 25.928 238.763 25.928C237.731 25.904 236.627 25.892 235.451 25.892C234.323 25.892 233.219 25.904 232.139 25.928C231.059 25.928 230.171 25.952 229.475 26V25.28C230.363 25.232 231.035 25.136 231.491 24.992C231.971 24.848 232.283 24.56 232.427 24.128C232.595 23.696 232.679 23.048 232.679 22.184V4.328C232.679 3.008 232.487 2.168 232.103 1.808C231.743 1.424 231.107 1.232 230.195 1.232H229.943C229.367 1.232 228.899 1.316 228.539 1.484C228.203 1.628 227.951 1.928 227.783 2.384C227.639 2.816 227.531 3.464 227.459 4.328C227.315 6.008 227.171 7.856 227.027 9.872C226.883 11.864 226.691 13.844 226.451 15.812C226.211 17.756 225.839 19.544 225.335 21.176C224.855 22.784 224.183 24.08 223.319 25.064C222.455 26.024 221.327 26.504 219.935 26.504C218.855 26.504 217.919 26.204 217.127 25.604C216.359 24.98 215.975 24.164 215.975 23.156C215.975 22.22 216.287 21.476 216.911 20.924C217.559 20.372 218.339 20.096 219.251 20.096C220.043 20.096 220.679 20.3 221.159 20.708C221.663 21.092 221.915 21.632 221.915 22.328C221.915 23.168 221.639 23.876 221.087 24.452C220.559 25.004 219.875 25.4 219.035 25.64C219.155 25.712 219.287 25.76 219.431 25.784C219.599 25.808 219.767 25.82 219.935 25.82C221.039 25.82 221.963 25.4 222.707 24.56C223.451 23.72 224.051 22.58 224.507 21.14C224.987 19.676 225.359 18.02 225.623 16.172C225.887 14.324 226.091 12.392 226.235 10.376C226.379 8.336 226.511 6.32 226.631 4.328C226.727 3.056 226.583 2.24 226.199 1.88C225.839 1.496 225.011 1.28 223.715 1.232V0.512C224.219 0.536 224.819 0.559999 225.515 0.583999C226.211 0.607999 226.847 0.619998 227.423 0.619998C227.975 0.619998 228.503 0.607999 229.007 0.583999C229.535 0.536 230.063 0.512 230.591 0.512C231.503 0.512 232.331 0.536 233.075 0.583999C233.819 0.607999 234.707 0.619998 235.739 0.619998C236.339 0.619998 236.987 0.619998 237.683 0.619998C238.403 0.595999 239.075 0.583999 239.699 0.583999C240.347 0.559999 240.887 0.536 241.319 0.512ZM262.873 0.512C262.777 1.568 262.705 2.588 262.657 3.572C262.633 4.556 262.621 5.312 262.621 5.84C262.621 6.32 262.633 6.776 262.657 7.208C262.681 7.64 262.705 8 262.729 8.288H261.901C261.661 6.536 261.289 5.156 260.785 4.148C260.281 3.116 259.621 2.396 258.805 1.988C258.013 1.556 257.077 1.34 255.997 1.34H254.521C253.801 1.34 253.261 1.4 252.901 1.52C252.565 1.64 252.337 1.88 252.217 2.24C252.097 2.576 252.037 3.128 252.037 3.896V22.616C252.037 23.36 252.097 23.912 252.217 24.272C252.337 24.632 252.565 24.872 252.901 24.992C253.261 25.112 253.801 25.172 254.521 25.172H256.285C257.365 25.172 258.313 24.944 259.129 24.488C259.969 24.008 260.677 23.204 261.253 22.076C261.853 20.948 262.309 19.424 262.621 17.504H263.449C263.377 18.272 263.341 19.28 263.341 20.528C263.341 21.08 263.353 21.86 263.377 22.868C263.401 23.876 263.473 24.92 263.593 26C262.369 25.952 260.989 25.928 259.453 25.928C257.917 25.904 256.549 25.892 255.349 25.892C254.533 25.892 253.453 25.892 252.109 25.892C250.765 25.892 249.337 25.904 247.825 25.928C246.313 25.928 244.909 25.952 243.613 26V25.28C244.381 25.232 244.957 25.136 245.341 24.992C245.725 24.848 245.977 24.56 246.097 24.128C246.241 23.696 246.313 23.048 246.313 22.184V4.328C246.313 3.44 246.241 2.792 246.097 2.384C245.977 1.952 245.713 1.664 245.305 1.52C244.921 1.352 244.357 1.256 243.613 1.232V0.512C244.909 0.536 246.313 0.559999 247.825 0.583999C249.337 0.607999 250.765 0.619998 252.109 0.619998C253.453 0.619998 254.533 0.619998 255.349 0.619998C256.453 0.619998 257.701 0.619998 259.093 0.619998C260.509 0.595999 261.769 0.559999 262.873 0.512ZM257.257 12.824C257.257 12.824 257.257 12.944 257.257 13.184C257.257 13.424 257.257 13.544 257.257 13.544H250.957C250.957 13.544 250.957 13.424 250.957 13.184C250.957 12.944 250.957 12.824 250.957 12.824H257.257ZM258.301 8.072C258.205 9.44 258.157 10.484 258.157 11.204C258.181 11.924 258.193 12.584 258.193 13.184C258.193 13.784 258.205 14.444 258.229 15.164C258.253 15.884 258.313 16.928 258.409 18.296H257.581C257.461 17.456 257.233 16.676 256.897 15.956C256.585 15.236 256.129 14.66 255.529 14.228C254.929 13.772 254.149 13.544 253.189 13.544V12.824C254.149 12.824 254.917 12.56 255.493 12.032C256.069 11.504 256.513 10.88 256.825 10.16C257.137 9.416 257.353 8.72 257.473 8.072H258.301ZM277.553 0.512V1.232C276.785 1.256 276.197 1.352 275.789 1.52C275.405 1.664 275.153 1.952 275.033 2.384C274.913 2.792 274.853 3.44 274.853 4.328V22.184C274.853 23.048 274.913 23.696 275.033 24.128C275.177 24.56 275.441 24.848 275.825 24.992C276.209 25.136 276.785 25.232 277.553 25.28V26C276.905 25.952 276.089 25.928 275.105 25.928C274.121 25.904 273.125 25.892 272.117 25.892C270.965 25.892 269.873 25.904 268.841 25.928C267.833 25.928 267.029 25.952 266.429 26V25.28C267.197 25.232 267.773 25.136 268.157 24.992C268.541 24.848 268.793 24.56 268.913 24.128C269.057 23.696 269.129 23.048 269.129 22.184V4.328C269.129 3.44 269.057 2.792 268.913 2.384C268.793 1.952 268.529 1.664 268.121 1.52C267.737 1.352 267.173 1.256 266.429 1.232V0.512C267.029 0.536 267.833 0.559999 268.841 0.583999C269.873 0.607999 270.965 0.619998 272.117 0.619998C273.125 0.619998 274.121 0.607999 275.105 0.583999C276.089 0.559999 276.905 0.536 277.553 0.512ZM275.897 12.392C277.817 12.392 279.485 12.536 280.901 12.824C282.341 13.088 283.493 13.58 284.357 14.3C285.245 14.996 285.845 16.028 286.157 17.396L287.201 22.22C287.393 23.204 287.609 23.888 287.849 24.272C288.089 24.632 288.449 24.812 288.929 24.812C289.217 24.788 289.457 24.716 289.649 24.596C289.865 24.452 290.093 24.248 290.333 23.984L290.837 24.416C290.189 25.136 289.493 25.664 288.749 26C288.005 26.336 287.105 26.504 286.049 26.504C284.753 26.504 283.685 26.24 282.845 25.712C282.005 25.16 281.453 24.128 281.189 22.616L280.217 17.108C280.049 16.148 279.797 15.368 279.461 14.768C279.149 14.168 278.669 13.724 278.021 13.436C277.373 13.148 276.473 13.004 275.321 13.004H273.917V12.392H275.897ZM274.709 13.004V12.392C275.741 12.368 276.677 12.092 277.517 11.564C278.357 11.012 279.257 10.172 280.217 9.044L282.341 6.488C283.277 5.408 283.817 4.484 283.961 3.716C284.105 2.924 283.949 2.312 283.493 1.88C283.037 1.448 282.329 1.22 281.369 1.196V0.512C282.257 0.536 283.097 0.559999 283.889 0.583999C284.681 0.607999 285.605 0.619998 286.661 0.619998C288.077 0.619998 289.217 0.583999 290.081 0.512V1.196C289.289 1.364 288.461 1.7 287.597 2.204C286.733 2.708 285.809 3.524 284.825 4.652L277.697 13.004H274.709ZM318.762 0.512V1.232C317.994 1.256 317.418 1.352 317.034 1.52C316.65 1.664 316.386 1.952 316.242 2.384C316.122 2.792 316.062 3.44 316.062 4.328V22.184C316.062 23.504 316.218 24.356 316.53 24.74C316.866 25.1 317.61 25.28 318.762 25.28H319.842C319.746 26.216 319.674 27.116 319.626 27.98C319.602 28.844 319.59 29.504 319.59 29.96C319.59 30.92 319.626 31.7 319.698 32.3H318.87C318.63 30.716 318.246 29.456 317.718 28.52C317.19 27.608 316.506 26.96 315.666 26.576C314.85 26.192 313.878 26 312.75 26C311.958 26 311.13 26 310.266 26C309.426 26 308.598 26 307.782 26C306.966 26 306.222 26 305.55 26C304.71 26 303.606 25.988 302.238 25.964C300.87 25.916 299.478 25.892 298.062 25.892C296.91 25.892 295.818 25.904 294.786 25.928C293.778 25.928 292.974 25.952 292.374 26V25.28C293.118 25.232 293.682 25.136 294.066 24.992C294.474 24.848 294.738 24.56 294.858 24.128C295.002 23.696 295.074 23.048 295.074 22.184V4.328C295.074 3.44 295.002 2.792 294.858 2.384C294.738 1.952 294.474 1.664 294.066 1.52C293.682 1.352 293.118 1.256 292.374 1.232V0.512C292.974 0.536 293.778 0.559999 294.786 0.583999C295.818 0.607999 296.91 0.619998 298.062 0.619998C299.07 0.619998 300.066 0.607999 301.05 0.583999C302.034 0.559999 302.85 0.536 303.498 0.512V1.232C302.73 1.256 302.154 1.352 301.77 1.52C301.386 1.664 301.122 1.952 300.978 2.384C300.858 2.792 300.798 3.44 300.798 4.328V22.184C300.798 23.504 300.978 24.356 301.338 24.74C301.698 25.1 302.49 25.28 303.714 25.28H307.422C308.646 25.28 309.438 25.1 309.798 24.74C310.158 24.356 310.338 23.504 310.338 22.184V4.328C310.338 3.44 310.266 2.792 310.122 2.384C310.002 1.952 309.738 1.664 309.33 1.52C308.946 1.352 308.382 1.256 307.638 1.232V0.512C308.262 0.536 309.066 0.559999 310.05 0.583999C311.058 0.607999 312.066 0.619998 313.074 0.619998C314.226 0.619998 315.306 0.607999 316.314 0.583999C317.322 0.559999 318.138 0.536 318.762 0.512ZM332.608 0.512V1.232C331.84 1.256 331.264 1.352 330.88 1.52C330.496 1.664 330.232 1.952 330.088 2.384C329.968 2.792 329.908 3.44 329.908 4.328V22.184C329.908 23.048 329.968 23.696 330.088 24.128C330.232 24.56 330.496 24.848 330.88 24.992C331.264 25.136 331.84 25.232 332.608 25.28V26C331.96 25.952 331.144 25.928 330.16 25.928C329.176 25.904 328.18 25.892 327.172 25.892C325.996 25.892 324.904 25.904 323.896 25.928C322.912 25.928 322.108 25.952 321.484 26V25.28C322.228 25.232 322.792 25.136 323.176 24.992C323.584 24.848 323.848 24.56 323.968 24.128C324.112 23.696 324.184 23.048 324.184 22.184V4.328C324.184 3.44 324.112 2.792 323.968 2.384C323.848 1.952 323.584 1.664 323.176 1.52C322.792 1.352 322.228 1.256 321.484 1.232V0.512C322.108 0.536 322.912 0.559999 323.896 0.583999C324.904 0.607999 325.996 0.619998 327.172 0.619998C328.18 0.619998 329.176 0.607999 330.16 0.583999C331.144 0.559999 331.96 0.536 332.608 0.512ZM340.888 2.492C340.888 2.492 340.888 2.624 340.888 2.888C340.888 3.128 340.888 3.38 340.888 3.644C340.912 3.908 340.924 4.04 340.924 4.04L328.9 24.38L328.576 23.372L340.888 2.492ZM348.592 0.512V1.232C347.824 1.256 347.248 1.352 346.864 1.52C346.48 1.664 346.216 1.952 346.072 2.384C345.952 2.792 345.892 3.44 345.892 4.328V22.184C345.892 23.048 345.952 23.696 346.072 24.128C346.216 24.56 346.48 24.848 346.864 24.992C347.248 25.136 347.824 25.232 348.592 25.28V26C347.968 25.952 347.152 25.928 346.144 25.928C345.136 25.904 344.056 25.892 342.904 25.892C341.896 25.892 340.888 25.904 339.88 25.928C338.896 25.928 338.092 25.952 337.468 26V25.28C338.212 25.232 338.776 25.136 339.16 24.992C339.544 24.848 339.808 24.56 339.952 24.128C340.096 23.696 340.168 23.048 340.168 22.184V4.328C340.168 3.44 340.096 2.792 339.952 2.384C339.808 1.952 339.544 1.664 339.16 1.52C338.776 1.352 338.212 1.256 337.468 1.232V0.512C338.092 0.536 338.896 0.559999 339.88 0.583999C340.888 0.607999 341.896 0.619998 342.904 0.619998C344.056 0.619998 345.136 0.607999 346.144 0.583999C347.152 0.559999 347.968 0.536 348.592 0.512ZM373.695 0.512V1.232C372.927 1.256 372.351 1.352 371.967 1.52C371.583 1.664 371.319 1.952 371.175 2.384C371.055 2.792 370.995 3.44 370.995 4.328V22.184C370.995 23.048 371.055 23.696 371.175 24.128C371.319 24.56 371.583 24.848 371.967 24.992C372.351 25.136 372.927 25.232 373.695 25.28V26C373.095 25.952 372.279 25.928 371.247 25.928C370.239 25.904 369.159 25.892 368.007 25.892C367.023 25.892 366.027 25.904 365.019 25.928C364.011 25.928 363.195 25.952 362.571 26V25.28C363.315 25.232 363.879 25.136 364.263 24.992C364.671 24.848 364.935 24.56 365.055 24.128C365.199 23.696 365.271 23.048 365.271 22.184V4.328C365.271 3.08 365.127 2.252 364.839 1.844C364.575 1.436 363.975 1.232 363.039 1.232C361.407 1.232 360.255 1.748 359.583 2.78C358.911 3.812 358.575 5.252 358.575 7.1C358.575 8.228 358.707 9.26 358.971 10.196C359.235 11.108 359.739 11.84 360.483 12.392C361.227 12.92 362.307 13.184 363.723 13.184H366.819C366.819 13.184 366.819 13.304 366.819 13.544C366.819 13.784 366.819 13.904 366.819 13.904H363.363C360.531 13.904 358.335 13.58 356.775 12.932C355.215 12.284 354.123 11.432 353.499 10.376C352.899 9.32 352.599 8.204 352.599 7.028C352.599 4.964 353.415 3.368 355.047 2.24C356.703 1.112 359.211 0.547999 362.571 0.547999C363.027 0.547999 363.783 0.559999 364.839 0.583999C365.919 0.607999 367.047 0.619998 368.223 0.619998C369.231 0.619998 370.239 0.607999 371.247 0.583999C372.279 0.559999 373.095 0.536 373.695 0.512ZM366.603 13.292L366.531 13.904H362.643C361.899 13.904 361.311 14.132 360.879 14.588C360.471 15.02 360.147 15.62 359.907 16.388C359.667 17.132 359.463 18.008 359.295 19.016L358.647 22.616C358.383 24.104 357.831 25.124 356.991 25.676C356.151 26.228 355.095 26.504 353.823 26.504C352.791 26.504 351.903 26.336 351.159 26C350.415 25.688 349.731 25.16 349.107 24.416L349.611 23.984C349.851 24.248 350.067 24.452 350.259 24.596C350.475 24.716 350.739 24.788 351.051 24.812C351.507 24.812 351.855 24.62 352.095 24.236C352.335 23.852 352.551 23.18 352.743 22.22L353.499 18.512C353.811 16.976 354.519 15.872 355.623 15.2C356.727 14.528 358.311 14.06 360.375 13.796C360.831 13.724 361.287 13.664 361.743 13.616C362.199 13.568 362.799 13.52 363.543 13.472C364.311 13.4 365.331 13.34 366.603 13.292Z" fill="white"/>
</svg>
